<mxfile host="65bd71144e" modified="2023-01-05T14:39:44.208Z" agent="5.0 (X11; Linux x86_64) AppleWebKit/537.36 (KHTML, like Gecko) Code/1.74.2 Chrome/102.0.5005.167 Electron/19.1.8 Safari/537.36" etag="qA9ndGuw2jNKGK0LZs2C" version="20.8.1" type="embed">
    <diagram id="Vf6uTUnJ0VduHG0PgwPv" name="microledger-structure">
        <mxGraphModel dx="246" dy="131" grid="1" gridSize="10" guides="1" tooltips="1" connect="1" arrows="1" fold="1" page="1" pageScale="1" pageWidth="827" pageHeight="1169" math="0" shadow="0">
            <root>
                <mxCell id="0"/>
                <mxCell id="1" parent="0"/>
                <mxCell id="46" value="Empty" style="text;html=1;strokeColor=none;fillColor=none;align=center;verticalAlign=middle;whiteSpace=wrap;rounded=0;" parent="1" vertex="1">
                    <mxGeometry x="40" y="357" width="60" height="30" as="geometry"/>
                </mxCell>
                <mxCell id="3" value="" style="rounded=1;whiteSpace=wrap;html=1;fillColor=#f5f5f5;fontColor=#333333;strokeColor=#666666;" parent="1" vertex="1">
                    <mxGeometry x="140" y="230" width="140" height="190" as="geometry"/>
                </mxCell>
                <mxCell id="6" value="&lt;div&gt;Previous event hash&lt;br&gt;&lt;/div&gt;" style="rounded=1;whiteSpace=wrap;html=1;fillColor=#d5e8d4;strokeColor=#82b366;" parent="1" vertex="1">
                    <mxGeometry x="150" y="362" width="120" height="20" as="geometry"/>
                </mxCell>
                <mxCell id="10" value="&lt;div&gt;Event metainfo&lt;br&gt;&lt;/div&gt;" style="rounded=1;whiteSpace=wrap;html=1;fillColor=#dae8fc;strokeColor=#6c8ebf;" parent="1" vertex="1">
                    <mxGeometry x="150" y="387" width="120" height="20" as="geometry"/>
                </mxCell>
                <mxCell id="11" value="Event" style="text;html=1;strokeColor=none;fillColor=none;align=center;verticalAlign=middle;whiteSpace=wrap;rounded=0;" parent="1" vertex="1">
                    <mxGeometry x="180" y="236" width="60" height="10" as="geometry"/>
                </mxCell>
                <mxCell id="58" value="" style="group" vertex="1" connectable="0" parent="1">
                    <mxGeometry x="150" y="250" width="120" height="106" as="geometry"/>
                </mxCell>
                <mxCell id="53" value="" style="group" vertex="1" connectable="0" parent="58">
                    <mxGeometry y="77" width="120" height="29" as="geometry"/>
                </mxCell>
                <mxCell id="49" value="&lt;div&gt;Approver signature&lt;br&gt;&lt;/div&gt;" style="rounded=1;whiteSpace=wrap;html=1;fillColor=#f8cecc;strokeColor=#b85450;dashed=1;" vertex="1" parent="53">
                    <mxGeometry width="110" height="20" as="geometry"/>
                </mxCell>
                <mxCell id="50" value="&lt;div&gt;Approver signature&lt;br&gt;&lt;/div&gt;" style="rounded=1;whiteSpace=wrap;html=1;fillColor=#f8cecc;strokeColor=#b85450;dashed=1;" vertex="1" parent="53">
                    <mxGeometry x="5" y="5" width="110" height="20" as="geometry"/>
                </mxCell>
                <mxCell id="51" value="&lt;div&gt;Approver signature&lt;br&gt;&lt;/div&gt;" style="rounded=1;whiteSpace=wrap;html=1;fillColor=#f8cecc;strokeColor=#b85450;dashed=1;" vertex="1" parent="53">
                    <mxGeometry x="10" y="9" width="110" height="20" as="geometry"/>
                </mxCell>
                <mxCell id="54" style="edgeStyle=none;html=1;exitX=0.5;exitY=0;exitDx=0;exitDy=0;entryX=0.459;entryY=1.002;entryDx=0;entryDy=0;entryPerimeter=0;" edge="1" parent="58" source="49" target="9">
                    <mxGeometry relative="1" as="geometry">
                        <mxPoint x="64" y="80" as="sourcePoint"/>
                        <mxPoint x="55" y="70" as="targetPoint"/>
                    </mxGeometry>
                </mxCell>
                <mxCell id="57" value="" style="group" vertex="1" connectable="0" parent="58">
                    <mxGeometry width="120" height="65" as="geometry"/>
                </mxCell>
                <mxCell id="9" value="&lt;div&gt;&lt;br&gt;&lt;/div&gt;" style="rounded=1;whiteSpace=wrap;html=1;fillColor=#fff2cc;strokeColor=#d6b656;" parent="57" vertex="1">
                    <mxGeometry width="120" height="65" as="geometry"/>
                </mxCell>
                <mxCell id="47" value="Event request" style="text;html=1;strokeColor=none;fillColor=none;align=center;verticalAlign=middle;whiteSpace=wrap;rounded=0;" vertex="1" parent="57">
                    <mxGeometry x="15" y="3" width="90" height="10" as="geometry"/>
                </mxCell>
                <mxCell id="5" value="&lt;div&gt;Invoker signature&lt;br&gt;&lt;/div&gt;" style="rounded=1;whiteSpace=wrap;html=1;fillColor=#f8cecc;strokeColor=#b85450;dashed=1;" parent="57" vertex="1">
                    <mxGeometry x="10" y="40" width="100" height="20" as="geometry"/>
                </mxCell>
                <mxCell id="56" value="&lt;div&gt;Content&lt;br&gt;&lt;/div&gt;" style="rounded=1;whiteSpace=wrap;html=1;fillColor=#dae8fc;strokeColor=#6c8ebf;" vertex="1" parent="57">
                    <mxGeometry x="10" y="16" width="100" height="20" as="geometry"/>
                </mxCell>
                <mxCell id="45" style="edgeStyle=orthogonalEdgeStyle;rounded=0;orthogonalLoop=1;jettySize=auto;html=1;" parent="1" source="6" edge="1">
                    <mxGeometry relative="1" as="geometry">
                        <mxPoint x="100" y="372" as="targetPoint"/>
                    </mxGeometry>
                </mxCell>
                <mxCell id="59" value="" style="rounded=1;whiteSpace=wrap;html=1;fillColor=#f5f5f5;fontColor=#333333;strokeColor=#666666;" vertex="1" parent="1">
                    <mxGeometry x="320" y="230" width="140" height="190" as="geometry"/>
                </mxCell>
                <mxCell id="60" value="&lt;div&gt;Previous event hash&lt;br&gt;&lt;/div&gt;" style="rounded=1;whiteSpace=wrap;html=1;fillColor=#d5e8d4;strokeColor=#82b366;" vertex="1" parent="1">
                    <mxGeometry x="330" y="362" width="120" height="20" as="geometry"/>
                </mxCell>
                <mxCell id="63" value="&lt;div&gt;Event metainfo&lt;br&gt;&lt;/div&gt;" style="rounded=1;whiteSpace=wrap;html=1;fillColor=#dae8fc;strokeColor=#6c8ebf;" vertex="1" parent="1">
                    <mxGeometry x="330" y="387" width="120" height="20" as="geometry"/>
                </mxCell>
                <mxCell id="64" value="Event" style="text;html=1;strokeColor=none;fillColor=none;align=center;verticalAlign=middle;whiteSpace=wrap;rounded=0;" vertex="1" parent="1">
                    <mxGeometry x="360" y="236" width="60" height="10" as="geometry"/>
                </mxCell>
                <mxCell id="65" value="" style="group" vertex="1" connectable="0" parent="1">
                    <mxGeometry x="330" y="250" width="120" height="106" as="geometry"/>
                </mxCell>
                <mxCell id="71" value="" style="group" vertex="1" connectable="0" parent="65">
                    <mxGeometry width="120" height="65" as="geometry"/>
                </mxCell>
                <mxCell id="72" value="&lt;div&gt;&lt;br&gt;&lt;/div&gt;" style="rounded=1;whiteSpace=wrap;html=1;fillColor=#fff2cc;strokeColor=#d6b656;" vertex="1" parent="71">
                    <mxGeometry width="120" height="65" as="geometry"/>
                </mxCell>
                <mxCell id="73" value="Event request" style="text;html=1;strokeColor=none;fillColor=none;align=center;verticalAlign=middle;whiteSpace=wrap;rounded=0;" vertex="1" parent="71">
                    <mxGeometry x="15" y="3" width="90" height="10" as="geometry"/>
                </mxCell>
                <mxCell id="74" value="&lt;div&gt;Invoker signature&lt;br&gt;&lt;/div&gt;" style="rounded=1;whiteSpace=wrap;html=1;fillColor=#f8cecc;strokeColor=#b85450;dashed=1;" vertex="1" parent="71">
                    <mxGeometry x="10" y="40" width="100" height="20" as="geometry"/>
                </mxCell>
                <mxCell id="75" value="&lt;div&gt;Content&lt;br&gt;&lt;/div&gt;" style="rounded=1;whiteSpace=wrap;html=1;fillColor=#dae8fc;strokeColor=#6c8ebf;" vertex="1" parent="71">
                    <mxGeometry x="10" y="16" width="100" height="20" as="geometry"/>
                </mxCell>
                <mxCell id="76" style="edgeStyle=orthogonalEdgeStyle;rounded=0;orthogonalLoop=1;jettySize=auto;html=1;" edge="1" parent="1" source="60">
                    <mxGeometry relative="1" as="geometry">
                        <mxPoint x="280" y="372" as="targetPoint"/>
                    </mxGeometry>
                </mxCell>
                <mxCell id="77" value="" style="rounded=1;whiteSpace=wrap;html=1;fillColor=#f5f5f5;fontColor=#333333;strokeColor=#666666;" vertex="1" parent="1">
                    <mxGeometry x="500" y="230" width="140" height="190" as="geometry"/>
                </mxCell>
                <mxCell id="78" value="&lt;div&gt;Previous event hash&lt;br&gt;&lt;/div&gt;" style="rounded=1;whiteSpace=wrap;html=1;fillColor=#d5e8d4;strokeColor=#82b366;" vertex="1" parent="1">
                    <mxGeometry x="510" y="362" width="120" height="20" as="geometry"/>
                </mxCell>
                <mxCell id="81" value="&lt;div&gt;Event metainfo&lt;br&gt;&lt;/div&gt;" style="rounded=1;whiteSpace=wrap;html=1;fillColor=#dae8fc;strokeColor=#6c8ebf;" vertex="1" parent="1">
                    <mxGeometry x="510" y="387" width="120" height="20" as="geometry"/>
                </mxCell>
                <mxCell id="82" value="Event" style="text;html=1;strokeColor=none;fillColor=none;align=center;verticalAlign=middle;whiteSpace=wrap;rounded=0;" vertex="1" parent="1">
                    <mxGeometry x="540" y="236" width="60" height="10" as="geometry"/>
                </mxCell>
                <mxCell id="83" value="" style="group" vertex="1" connectable="0" parent="1">
                    <mxGeometry x="510" y="250" width="120" height="106" as="geometry"/>
                </mxCell>
                <mxCell id="84" value="" style="group" vertex="1" connectable="0" parent="83">
                    <mxGeometry y="77" width="120" height="29" as="geometry"/>
                </mxCell>
                <mxCell id="85" value="&lt;div&gt;Approver signature&lt;br&gt;&lt;/div&gt;" style="rounded=1;whiteSpace=wrap;html=1;fillColor=#f8cecc;strokeColor=#b85450;dashed=1;" vertex="1" parent="84">
                    <mxGeometry width="110" height="20" as="geometry"/>
                </mxCell>
                <mxCell id="86" value="&lt;div&gt;Approver signature&lt;br&gt;&lt;/div&gt;" style="rounded=1;whiteSpace=wrap;html=1;fillColor=#f8cecc;strokeColor=#b85450;dashed=1;" vertex="1" parent="84">
                    <mxGeometry x="5" y="5" width="110" height="20" as="geometry"/>
                </mxCell>
                <mxCell id="87" value="&lt;div&gt;Approver signature&lt;br&gt;&lt;/div&gt;" style="rounded=1;whiteSpace=wrap;html=1;fillColor=#f8cecc;strokeColor=#b85450;dashed=1;" vertex="1" parent="84">
                    <mxGeometry x="10" y="9" width="110" height="20" as="geometry"/>
                </mxCell>
                <mxCell id="88" style="edgeStyle=none;html=1;exitX=0.5;exitY=0;exitDx=0;exitDy=0;entryX=0.459;entryY=1.002;entryDx=0;entryDy=0;entryPerimeter=0;" edge="1" parent="83" source="85" target="90">
                    <mxGeometry relative="1" as="geometry">
                        <mxPoint x="64" y="80" as="sourcePoint"/>
                        <mxPoint x="55" y="70" as="targetPoint"/>
                    </mxGeometry>
                </mxCell>
                <mxCell id="89" value="" style="group" vertex="1" connectable="0" parent="83">
                    <mxGeometry width="120" height="65" as="geometry"/>
                </mxCell>
                <mxCell id="90" value="&lt;div&gt;&lt;br&gt;&lt;/div&gt;" style="rounded=1;whiteSpace=wrap;html=1;fillColor=#fff2cc;strokeColor=#d6b656;" vertex="1" parent="89">
                    <mxGeometry width="120" height="65" as="geometry"/>
                </mxCell>
                <mxCell id="91" value="Event request" style="text;html=1;strokeColor=none;fillColor=none;align=center;verticalAlign=middle;whiteSpace=wrap;rounded=0;" vertex="1" parent="89">
                    <mxGeometry x="15" y="3" width="90" height="10" as="geometry"/>
                </mxCell>
                <mxCell id="93" value="&lt;div&gt;Content&lt;br&gt;&lt;/div&gt;" style="rounded=1;whiteSpace=wrap;html=1;fillColor=#dae8fc;strokeColor=#6c8ebf;" vertex="1" parent="89">
                    <mxGeometry x="10" y="16" width="100" height="20" as="geometry"/>
                </mxCell>
                <mxCell id="94" style="edgeStyle=orthogonalEdgeStyle;rounded=0;orthogonalLoop=1;jettySize=auto;html=1;" edge="1" parent="1" source="78">
                    <mxGeometry relative="1" as="geometry">
                        <mxPoint x="460" y="372" as="targetPoint"/>
                    </mxGeometry>
                </mxCell>
                <mxCell id="95" value="" style="rounded=1;whiteSpace=wrap;html=1;fillColor=#f5f5f5;fontColor=#333333;strokeColor=#666666;" vertex="1" parent="1">
                    <mxGeometry x="680" y="230" width="140" height="190" as="geometry"/>
                </mxCell>
                <mxCell id="96" value="&lt;div&gt;Previous event hash&lt;br&gt;&lt;/div&gt;" style="rounded=1;whiteSpace=wrap;html=1;fillColor=#d5e8d4;strokeColor=#82b366;" vertex="1" parent="1">
                    <mxGeometry x="690" y="362" width="120" height="20" as="geometry"/>
                </mxCell>
                <mxCell id="99" value="&lt;div&gt;Event metainfo&lt;br&gt;&lt;/div&gt;" style="rounded=1;whiteSpace=wrap;html=1;fillColor=#dae8fc;strokeColor=#6c8ebf;" vertex="1" parent="1">
                    <mxGeometry x="690" y="387" width="120" height="20" as="geometry"/>
                </mxCell>
                <mxCell id="100" value="Event" style="text;html=1;strokeColor=none;fillColor=none;align=center;verticalAlign=middle;whiteSpace=wrap;rounded=0;" vertex="1" parent="1">
                    <mxGeometry x="720" y="236" width="60" height="10" as="geometry"/>
                </mxCell>
                <mxCell id="101" value="" style="group" vertex="1" connectable="0" parent="1">
                    <mxGeometry x="690" y="250" width="120" height="106" as="geometry"/>
                </mxCell>
                <mxCell id="107" value="" style="group" vertex="1" connectable="0" parent="101">
                    <mxGeometry width="120" height="65" as="geometry"/>
                </mxCell>
                <mxCell id="108" value="&lt;div&gt;&lt;br&gt;&lt;/div&gt;" style="rounded=1;whiteSpace=wrap;html=1;fillColor=#fff2cc;strokeColor=#d6b656;" vertex="1" parent="107">
                    <mxGeometry width="120" height="65" as="geometry"/>
                </mxCell>
                <mxCell id="109" value="Event request" style="text;html=1;strokeColor=none;fillColor=none;align=center;verticalAlign=middle;whiteSpace=wrap;rounded=0;" vertex="1" parent="107">
                    <mxGeometry x="15" y="3" width="90" height="10" as="geometry"/>
                </mxCell>
                <mxCell id="111" value="&lt;div&gt;Content&lt;br&gt;&lt;/div&gt;" style="rounded=1;whiteSpace=wrap;html=1;fillColor=#dae8fc;strokeColor=#6c8ebf;" vertex="1" parent="107">
                    <mxGeometry x="10" y="16" width="100" height="20" as="geometry"/>
                </mxCell>
                <mxCell id="112" style="edgeStyle=orthogonalEdgeStyle;rounded=0;orthogonalLoop=1;jettySize=auto;html=1;" edge="1" parent="1" source="96">
                    <mxGeometry relative="1" as="geometry">
                        <mxPoint x="640" y="372" as="targetPoint"/>
                    </mxGeometry>
                </mxCell>
                <mxCell id="113" style="edgeStyle=none;html=1;exitX=0.75;exitY=0;exitDx=0;exitDy=0;entryX=0.687;entryY=0.999;entryDx=0;entryDy=0;entryPerimeter=0;" edge="1" parent="1" source="117">
                    <mxGeometry relative="1" as="geometry">
                        <mxPoint x="776.1800000000001" y="420.00000000000006" as="targetPoint"/>
                    </mxGeometry>
                </mxCell>
                <mxCell id="114" style="rounded=0;orthogonalLoop=1;jettySize=auto;html=1;exitX=0.5;exitY=0;exitDx=0;exitDy=0;entryX=0.5;entryY=1;entryDx=0;entryDy=0;" edge="1" parent="1" source="115">
                    <mxGeometry relative="1" as="geometry">
                        <mxPoint x="750" y="420.19" as="targetPoint"/>
                    </mxGeometry>
                </mxCell>
                <mxCell id="115" value="&lt;div&gt;Subject signature&lt;br&gt;&lt;/div&gt;" style="rounded=1;whiteSpace=wrap;html=1;fillColor=#f8cecc;strokeColor=#b85450;" vertex="1" parent="1">
                    <mxGeometry x="680" y="436.19" width="140" height="19" as="geometry"/>
                </mxCell>
                <mxCell id="116" value="" style="group" vertex="1" connectable="0" parent="1">
                    <mxGeometry x="680" y="465.19" width="140" height="29" as="geometry"/>
                </mxCell>
                <mxCell id="117" value="&lt;div&gt;Approver signature&lt;br&gt;&lt;/div&gt;" style="rounded=1;whiteSpace=wrap;html=1;fillColor=#f8cecc;strokeColor=#b85450;" vertex="1" parent="116">
                    <mxGeometry width="128.33333333333334" height="20" as="geometry"/>
                </mxCell>
                <mxCell id="118" value="&lt;div&gt;Approver signature&lt;br&gt;&lt;/div&gt;" style="rounded=1;whiteSpace=wrap;html=1;fillColor=#f8cecc;strokeColor=#b85450;" vertex="1" parent="116">
                    <mxGeometry x="5.833333333333314" y="5" width="128.33333333333334" height="20" as="geometry"/>
                </mxCell>
                <mxCell id="119" value="&lt;div&gt;Validator signature&lt;br&gt;&lt;/div&gt;" style="rounded=1;whiteSpace=wrap;html=1;fillColor=#f8cecc;strokeColor=#b85450;" vertex="1" parent="116">
                    <mxGeometry x="11.666666666666686" y="9" width="128.33333333333334" height="20" as="geometry"/>
                </mxCell>
                <mxCell id="120" style="rounded=0;orthogonalLoop=1;jettySize=auto;html=1;exitX=0.5;exitY=0;exitDx=0;exitDy=0;entryX=0.5;entryY=1;entryDx=0;entryDy=0;" edge="1" parent="1" source="121">
                    <mxGeometry relative="1" as="geometry">
                        <mxPoint x="570.0000000000001" y="420.19000000000005" as="targetPoint"/>
                    </mxGeometry>
                </mxCell>
                <mxCell id="121" value="&lt;div&gt;Subject signature&lt;br&gt;&lt;/div&gt;" style="rounded=1;whiteSpace=wrap;html=1;fillColor=#f8cecc;strokeColor=#b85450;" vertex="1" parent="1">
                    <mxGeometry x="500" y="436.19" width="140" height="19" as="geometry"/>
                </mxCell>
                <mxCell id="124" style="rounded=0;orthogonalLoop=1;jettySize=auto;html=1;exitX=0.5;exitY=0;exitDx=0;exitDy=0;entryX=0.5;entryY=1;entryDx=0;entryDy=0;" edge="1" parent="1" source="125">
                    <mxGeometry relative="1" as="geometry">
                        <mxPoint x="390.0000000000001" y="420.00000000000006" as="targetPoint"/>
                    </mxGeometry>
                </mxCell>
                <mxCell id="125" value="&lt;div&gt;Subject signature&lt;br&gt;&lt;/div&gt;" style="rounded=1;whiteSpace=wrap;html=1;fillColor=#f8cecc;strokeColor=#b85450;" vertex="1" parent="1">
                    <mxGeometry x="320" y="436" width="140" height="19" as="geometry"/>
                </mxCell>
                <mxCell id="126" style="rounded=0;orthogonalLoop=1;jettySize=auto;html=1;exitX=0.5;exitY=0;exitDx=0;exitDy=0;entryX=0.5;entryY=1;entryDx=0;entryDy=0;" edge="1" parent="1" source="127">
                    <mxGeometry relative="1" as="geometry">
                        <mxPoint x="210.0000000000001" y="420.19" as="targetPoint"/>
                    </mxGeometry>
                </mxCell>
                <mxCell id="127" value="&lt;div&gt;Subject signature&lt;br&gt;&lt;/div&gt;" style="rounded=1;whiteSpace=wrap;html=1;fillColor=#f8cecc;strokeColor=#b85450;" vertex="1" parent="1">
                    <mxGeometry x="140" y="436.19" width="140" height="19" as="geometry"/>
                </mxCell>
            </root>
        </mxGraphModel>
    </diagram>
</mxfile>